<svg xmlns="http://www.w3.org/2000/svg" xmlns:xlink="http://www.w3.org/1999/xlink" fill="none" version="1.1" width="16" height="16" viewBox="0 0 16 16"><defs><clipPath id="master_svg0_0_5875"><rect x="0" y="0" width="16" height="16" rx="0"/></clipPath></defs><g clip-path="url(#master_svg0_0_5875)"><g><path d="M8.000016686534881,4.33333C10.526686686534882,4.33333,12.780066686534882,5.75333,13.880066686534882,8C12.780066686534882,10.24667,10.533356686534882,11.66667,8.000016686534881,11.66667C5.466676686534882,11.66667,3.2200066865348815,10.24667,2.1200066865348814,8C3.2200066865348815,5.75333,5.473346686534882,4.33333,8.000016686534881,4.33333C8.000016686534881,4.33333,8.000016686534881,4.33333,8.000016686534881,4.33333ZM8.000016686534881,3C4.666676686534881,3,1.8200066865348816,5.07333,0.6666666865348816,8C1.8200066865348816,10.92667,4.666676686534881,13,8.000016686534881,13C11.333366686534882,13,14.180066686534882,10.92667,15.333366686534882,8C14.180066686534882,5.07333,11.333366686534882,3,8.000016686534881,3C8.000016686534881,3,8.000016686534881,3,8.000016686534881,3ZM8.000016686534881,6.33333C8.920016686534881,6.33333,9.66668668653488,7.08,9.66668668653488,8C9.66668668653488,8.92,8.920016686534881,9.66667,8.000016686534881,9.66667C7.080016686534882,9.66667,6.333346686534882,8.92,6.333346686534882,8C6.333346686534882,7.08,7.080016686534882,6.33333,8.000016686534881,6.33333C8.000016686534881,6.33333,8.000016686534881,6.33333,8.000016686534881,6.33333ZM8.000016686534881,5C6.346676686534882,5,5.000006686534881,6.34667,5.000006686534881,8C5.000006686534881,9.65333,6.346676686534882,11,8.000016686534881,11C9.653356686534881,11,11.00006668653488,9.65333,11.00006668653488,8C11.00006668653488,6.34667,9.653356686534881,5,8.000016686534881,5C8.000016686534881,5,8.000016686534881,5,8.000016686534881,5Z" fill="#95999C" fill-opacity="1"/></g></g></svg>