<svg xmlns="http://www.w3.org/2000/svg" xmlns:xlink="http://www.w3.org/1999/xlink" fill="none" version="1.1" width="24" height="24" viewBox="0 0 24 24"><defs><clipPath id="master_svg0_0_6168"><rect x="0" y="0" width="24" height="24" rx="0"/></clipPath></defs><g><g clip-path="url(#master_svg0_0_6168)"><g><path d="M12,22C13.1,22,14,21.1,14,20C14,20,10,20,10,20C10,21.1,10.9,22,12,22C12,22,12,22,12,22ZM18,16C18,16,18,11,18,11C18,7.93,16.369999999999997,5.359999999999999,13.5,4.68C13.5,4.68,13.5,4,13.5,4C13.5,3.17,12.83,2.5,12,2.5C11.17,2.5,10.5,3.17,10.5,4C10.5,4,10.5,4.68,10.5,4.68C7.640000000000001,5.359999999999999,6,7.92,6,11C6,11,6,16,6,16C6,16,4,18,4,18C4,18,4,19,4,19C4,19,20,19,20,19C20,19,20,18,20,18C20,18,18,16,18,16C18,16,18,16,18,16ZM16,17C16,17,8,17,8,17C8,17,8,11,8,11C8,8.52,9.51,6.5,12,6.5C14.49,6.5,16,8.52,16,11C16,11,16,17,16,17C16,17,16,17,16,17Z" fill="#FFFFFF" fill-opacity="1"/></g></g><g><ellipse cx="20" cy="20" rx="4" ry="4" fill="#1AB060" fill-opacity="1"/></g></g></svg>