<svg xmlns="http://www.w3.org/2000/svg" xmlns:xlink="http://www.w3.org/1999/xlink" fill="none" version="1.1" width="24" height="24" viewBox="0 0 24 24"><defs><clipPath id="master_svg0_0_6110"><rect x="0" y="0" width="24" height="24" rx="0"/></clipPath></defs><g clip-path="url(#master_svg0_0_6110)"><g><path d="M19,9.3C19,9.3,19,4,19,4C19,4,16,4,16,4C16,4,16,6.6,16,6.6C16,6.6,12,3,12,3C12,3,2,12,2,12C2,12,5,12,5,12C5,12,5,20,5,20C5,20,11,20,11,20C11,20,11,14,11,14C11,14,13,14,13,14C13,14,13,20,13,20C13,20,19,20,19,20C19,20,19,12,19,12C19,12,22,12,22,12C22,12,19,9.3,19,9.3C19,9.3,19,9.3,19,9.3ZM17,18C17,18,15,18,15,18C15,18,15,12,15,12C15,12,9,12,9,12C9,12,9,18,9,18C9,18,7,18,7,18C7,18,7,10.190000000000001,7,10.190000000000001C7,10.190000000000001,12,5.6899999999999995,12,5.6899999999999995C12,5.6899999999999995,17,10.190000000000001,17,10.190000000000001C17,10.190000000000001,17,18,17,18C17,18,17,18,17,18Z" fill="#FFFFFF" fill-opacity="1"/></g><g><path d="M10,10C10,10,14,10,14,10C14,8.9,13.1,8,12,8C10.9,8,10,8.9,10,10C10,10,10,10,10,10Z" fill="#FFFFFF" fill-opacity="1"/></g></g></svg>