<svg xmlns="http://www.w3.org/2000/svg" xmlns:xlink="http://www.w3.org/1999/xlink" fill="none" version="1.1" width="16" height="16" viewBox="0 0 16 16"><defs><clipPath id="master_svg0_0_5870"><rect x="0" y="0" width="16" height="16" rx="0"/></clipPath></defs><g clip-path="url(#master_svg0_0_5870)"><g><path d="M7.993333373069763,1.3333333730697632C4.313333373069764,1.3333333730697632,1.3333333730697632,4.320003373069763,1.3333333730697632,8.000003373069763C1.3333333730697632,11.680033373069763,4.313333373069764,14.666633373069763,7.993333373069763,14.666633373069763C11.680033373069763,14.666633373069763,14.666633373069763,11.680033373069763,14.666633373069763,8.000003373069763C14.666633373069763,4.320003373069763,11.680033373069763,1.3333333730697632,7.993333373069763,1.3333333730697632C7.993333373069763,1.3333333730697632,7.993333373069763,1.3333333730697632,7.993333373069763,1.3333333730697632ZM8.000003373069763,13.333333373069763C5.053333373069764,13.333333373069763,2.6666633730697633,10.946663373069763,2.6666633730697633,8.000003373069763C2.6666633730697633,5.053333373069764,5.053333373069764,2.6666633730697633,8.000003373069763,2.6666633730697633C10.946663373069763,2.6666633730697633,13.333333373069763,5.053333373069764,13.333333373069763,8.000003373069763C13.333333373069763,10.946663373069763,10.946663373069763,13.333333373069763,8.000003373069763,13.333333373069763C8.000003373069763,13.333333373069763,8.000003373069763,13.333333373069763,8.000003373069763,13.333333373069763ZM8.333333373069763,4.666663373069763C8.333333373069763,4.666663373069763,7.333333373069763,4.666663373069763,7.333333373069763,4.666663373069763C7.333333373069763,4.666663373069763,7.333333373069763,8.666663373069763,7.333333373069763,8.666663373069763C7.333333373069763,8.666663373069763,10.833333373069763,10.766663373069763,10.833333373069763,10.766663373069763C10.833333373069763,10.766663373069763,11.333333373069763,9.946663373069763,11.333333373069763,9.946663373069763C11.333333373069763,9.946663373069763,8.333333373069763,8.166663373069763,8.333333373069763,8.166663373069763C8.333333373069763,8.166663373069763,8.333333373069763,4.666663373069763,8.333333373069763,4.666663373069763C8.333333373069763,4.666663373069763,8.333333373069763,4.666663373069763,8.333333373069763,4.666663373069763Z" fill="#95999C" fill-opacity="1"/></g></g></svg>