<svg xmlns="http://www.w3.org/2000/svg" xmlns:xlink="http://www.w3.org/1999/xlink" fill="none" version="1.1" width="24" height="24" viewBox="0 0 24 24"><defs><clipPath id="master_svg0_0_12578"><rect x="0" y="0" width="24" height="24" rx="0"/></clipPath></defs><g clip-path="url(#master_svg0_0_12578)"><g><path d="M6,18C6,18,14.5,12,14.5,12C14.5,12,6,6,6,6C6,6,6,18,6,18C6,18,6,18,6,18ZM16,6C16,6,16,18,16,18C16,18,18,18,18,18C18,18,18,6,18,6C18,6,16,6,16,6C16,6,16,6,16,6Z" fill="#000000" fill-opacity="0.5400000214576721"/></g></g></svg>