<svg xmlns="http://www.w3.org/2000/svg" xmlns:xlink="http://www.w3.org/1999/xlink" fill="none" version="1.1" width="24" height="24" viewBox="0 0 24 24"><defs><clipPath id="master_svg0_0_12598"><rect x="0" y="0" width="24" height="24" rx="0"/></clipPath></defs><g clip-path="url(#master_svg0_0_12598)"><g><path d="M6,6C6,6,8,6,8,6C8,6,8,18,8,18C8,18,6,18,6,18C6,18,6,6,6,6C6,6,6,6,6,6ZM9.5,12C9.5,12,18,18,18,18C18,18,18,6,18,6C18,6,9.5,12,9.5,12C9.5,12,9.5,12,9.5,12Z" fill="#000000" fill-opacity="0.5400000214576721"/></g></g></svg>