<svg xmlns="http://www.w3.org/2000/svg" xmlns:xlink="http://www.w3.org/1999/xlink" fill="none" version="1.1" width="24" height="24" viewBox="0 0 24 24"><defs><clipPath id="master_svg0_0_27258"><rect x="0" y="0" width="24" height="24" rx="0"/></clipPath></defs><g clip-path="url(#master_svg0_0_27258)"><g><path d="M21,8C21,8,14.69,8,14.69,8C14.69,8,15.64,3.43,15.64,3.43C15.64,3.43,15.67,3.11,15.67,3.11C15.67,2.7,15.5,2.3200000000000003,15.23,2.05C15.23,2.05,14.17,1,14.17,1C14.17,1,7.59,7.59,7.59,7.59C7.22,7.95,7,8.45,7,9C7,9,7,19,7,19C7,20.1,7.9,21,9,21C9,21,18,21,18,21C18.83,21,19.54,20.5,19.84,19.78C19.84,19.78,22.86,12.73,22.86,12.73C22.95,12.5,23,12.26,23,12C23,12,23,10,23,10C23,8.9,22.1,8,21,8C21,8,21,8,21,8ZM21,12C21,12,18,19,18,19C18,19,9,19,9,19C9,19,9,9,9,9C9,9,13.34,4.66,13.34,4.66C13.34,4.66,12.23,10,12.23,10C12.23,10,21,10,21,10C21,10,21,12,21,12C21,12,21,12,21,12ZM1,9C1,9,5,9,5,9C5,9,5,21,5,21C5,21,1,21,1,21C1,21,1,9,1,9C1,9,1,9,1,9Z" fill="#000000" fill-opacity="0.5400000214576721"/></g></g></svg>