<svg xmlns="http://www.w3.org/2000/svg" xmlns:xlink="http://www.w3.org/1999/xlink" fill="none" version="1.1" width="24" height="24" viewBox="0 0 24 24"><g><g><path d="M18.29999979019165,5.709999790191651C17.909999790191648,5.319999990191651,17.279999790191653,5.319999990191651,16.889999790191652,5.709999790191651C16.889999790191652,5.709999790191651,11.999999790191652,10.589999790191651,11.999999790191652,10.589999790191651C11.999999790191652,10.589999790191651,7.10999979019165,5.699999790191651,7.10999979019165,5.699999790191651C6.71999979019165,5.30999979019165,6.0899997901916505,5.30999979019165,5.699999790191651,5.699999790191651C5.30999979019165,6.0899997901916505,5.30999979019165,6.71999979019165,5.699999790191651,7.10999979019165C5.699999790191651,7.10999979019165,10.589999790191651,11.999999790191652,10.589999790191651,11.999999790191652C10.589999790191651,11.999999790191652,5.699999790191651,16.889999790191652,5.699999790191651,16.889999790191652C5.30999979019165,17.279999790191653,5.30999979019165,17.909999790191648,5.699999790191651,18.29999979019165C6.0899997901916505,18.68999979019165,6.71999979019165,18.68999979019165,7.10999979019165,18.29999979019165C7.10999979019165,18.29999979019165,11.999999790191652,13.40999979019165,11.999999790191652,13.40999979019165C11.999999790191652,13.40999979019165,16.889999790191652,18.29999979019165,16.889999790191652,18.29999979019165C17.279999790191653,18.68999979019165,17.909999790191648,18.68999979019165,18.29999979019165,18.29999979019165C18.68999979019165,17.909999790191648,18.68999979019165,17.279999790191653,18.29999979019165,16.889999790191652C18.29999979019165,16.889999790191652,13.40999979019165,11.999999790191652,13.40999979019165,11.999999790191652C13.40999979019165,11.999999790191652,18.29999979019165,7.10999979019165,18.29999979019165,7.10999979019165C18.67999979019165,6.72999979019165,18.67999979019165,6.0899997901916505,18.29999979019165,5.709999790191651C18.29999979019165,5.709999790191651,18.29999979019165,5.709999790191651,18.29999979019165,5.709999790191651C18.29999979019165,5.709999790191651,18.29999979019165,5.709999790191651,18.29999979019165,5.709999790191651Z" fill="#000000" fill-opacity="0.5400000214576721"/></g></g></svg>