<svg xmlns="http://www.w3.org/2000/svg" xmlns:xlink="http://www.w3.org/1999/xlink" fill="none" version="1.1" width="18.002500534057617" height="18.002500534057617" viewBox="0 0 18.002500534057617 18.002500534057617"><g><path d="M0,14.4625C0,14.4625,0,17.5025,0,17.5025C0,17.7825,0.22,18.0025,0.5,18.0025C0.5,18.0025,3.54,18.0025,3.54,18.0025C3.67,18.0025,3.8,17.9525,3.89,17.8525C3.89,17.8525,14.81,6.9425,14.81,6.9425C14.81,6.9425,11.06,3.1925,11.06,3.1925C11.06,3.1925,0.15,14.1025,0.15,14.1025C0.0500001,14.2025,0,14.3225,0,14.4625C0,14.4625,0,14.4625,0,14.4625ZM17.71,4.0425C18.1,3.6525,18.1,3.0225,17.71,2.6325C17.71,2.6325,15.37,0.2925,15.37,0.2925C14.98,-0.0975,14.35,-0.0975,13.96,0.2925C13.96,0.2925,12.13,2.1225,12.13,2.1225C12.13,2.1225,15.88,5.8725,15.88,5.8725C15.88,5.8725,17.71,4.0425,17.71,4.0425C17.71,4.0425,17.71,4.0425,17.71,4.0425C17.71,4.0425,17.71,4.0425,17.71,4.0425Z" fill="#000000" fill-opacity="0.5400000214576721"/></g></svg>