<svg xmlns="http://www.w3.org/2000/svg" xmlns:xlink="http://www.w3.org/1999/xlink" fill="none" version="1.1" width="18.002500534057617" height="18" viewBox="0 0 18.002500534057617 18"><g><path d="M11.06,6.02C11.06,6.02,11.98,6.94,11.98,6.94C11.98,6.94,2.92,16,2.92,16C2.92,16,2,16,2,16C2,16,2,15.08,2,15.08C2,15.08,11.06,6.02,11.06,6.02C11.06,6.02,11.06,6.02,11.06,6.02C11.06,6.02,11.06,6.02,11.06,6.02ZM14.66,0C14.41,0,14.15,0.1,13.96,0.29C13.96,0.29,12.13,2.12,12.13,2.12C12.13,2.12,15.88,5.87,15.88,5.87C15.88,5.87,17.71,4.04,17.71,4.04C18.1,3.65,18.1,3.02,17.71,2.63C17.71,2.63,15.37,0.29,15.37,0.29C15.17,0.09,14.92,0,14.66,0C14.66,0,14.66,0,14.66,0C14.66,0,14.66,0,14.66,0ZM11.06,3.19C11.06,3.19,0,14.25,0,14.25C0,14.25,0,18,0,18C0,18,3.75,18,3.75,18C3.75,18,14.81,6.94,14.81,6.94C14.81,6.94,11.06,3.19,11.06,3.19C11.06,3.19,11.06,3.19,11.06,3.19C11.06,3.19,11.06,3.19,11.06,3.19Z" fill="#000000" fill-opacity="0.5400000214576721"/></g></svg>