<svg xmlns="http://www.w3.org/2000/svg" xmlns:xlink="http://www.w3.org/1999/xlink" fill="none" version="1.1" width="20" height="20" viewBox="0 0 20 20"><g><path d="M8,14.5C8,14.5,14,10,14,10C14,10,8,5.5,8,5.5C8,5.5,8,14.5,8,14.5C8,14.5,8,14.5,8,14.5ZM10,0C4.48,0,0,4.48,0,10C0,15.52,4.48,20,10,20C15.52,20,20,15.52,20,10C20,4.48,15.52,0,10,0C10,0,10,0,10,0ZM10,18C5.59,18,2,14.41,2,10C2,5.59,5.59,2,10,2C14.41,2,18,5.59,18,10C18,14.41,14.41,18,10,18C10,18,10,18,10,18Z" fill="#FFFFFF" fill-opacity="1"/></g></svg>