<svg xmlns="http://www.w3.org/2000/svg" xmlns:xlink="http://www.w3.org/1999/xlink" fill="none" version="1.1" width="118" height="118" viewBox="0 0 118 118"><defs><clipPath id="master_svg0_0_6144"><rect x="0" y="0" width="118" height="118" rx="0"/></clipPath></defs><g clip-path="url(#master_svg0_0_6144)"><g><g><path d="M56.94356922588348,64.52374669799805C53.882069225883484,65.42074669799804,50.82056922588349,66.32924669799804,47.75916922588348,67.21474669799805C47.38946922588349,67.31824669799805,47.01976922588348,67.41024669799805,46.63856922588349,67.45624669799804C44.408869225883485,67.67474669799805,42.58356922588348,68.47964669799805,40.74666922588348,69.92864669799805C37.142209225883484,72.75764669799804,35.82519922588348,76.48364669799804,35.178249225883484,80.72704669799805C34.53129922588349,84.95894669799804,32.20919922588348,88.24794669799805,28.650967325883485,90.70894669799804C29.390340225883484,89.60494669799805,30.187479225883482,88.54694669799804,30.857529225883482,87.40844669799804C32.659759225883484,84.38394669799806,33.31825922588348,81.04904669799805,33.826579225883485,77.59904669799805C34.115399225883486,75.66714669799805,35.14358922588348,73.83864669799804,35.906069225883485,71.98714669799804C36.69164922588348,70.08964669799805,37.59275922588348,68.23814669799805,38.35523922588348,66.32924669799804C39.314069225883486,63.960246697998045,41.26656922588349,62.695246697998044,43.449969225883486,61.77524669799804C47.551169225883484,60.038846697998046,51.69856922588349,58.45181669799805,55.82296922588348,56.78433669799804C59.01146922588349,55.48485669799805,64.09466922588348,56.01384669799805,65.9084692258835,58.25632669799805C68.29986922588348,61.211746697998045,68.47316922588348,63.155246697998045,65.50406922588348,65.60474669799805C61.93426922588348,68.53714669799805,58.72266922588348,71.91814669799805,55.44166922588349,75.18414669799805C54.321069225883484,76.29964669799804,53.443069225883484,77.65654669799804,52.44956922588348,78.89854669799804C52.50726922588348,79.04804669799805,52.565069225883484,79.19754669799805,52.622869225883484,79.35854669799805C53.53546922588349,79.19754669799805,54.44816922588348,79.07104669799804,55.34926922588348,78.85254669799805C57.948669225883485,78.22004669799804,60.02816922588349,78.84104669799805,61.19496922588348,80.64654669799805C62.15376922588349,82.11854669799806,61.72636922588348,83.51004669799805,60.004969225883485,83.77454669799805C58.248969225883485,84.05044669799804,56.43526922588349,83.95854669799805,54.64456922588349,84.03904669799805C53.004069225883484,84.10804669799805,51.35206922588348,84.17704669799804,49.71156922588348,84.30354669799804C49.35346922588349,84.32654669799805,48.925969225883485,84.48744669799805,48.68336922588348,84.74044669799804C44.29336922588348,88.99544669799805,39.914869225883486,93.27334669799805,35.55948922588348,97.55134669799804C35.351539225883485,97.75834669799805,35.27066922588348,98.09184669799805,35.224459225883486,98.17234669799805C37.766049225883485,98.17234669799805,40.400069225883485,98.54034669799805,42.87236922588348,98.08034669799804C46.522969225883486,97.40184669799805,49.96566922588349,97.93084669799805,53.40836922588348,98.88534669799805C56.33126922588349,99.70184669799805,56.446769225883486,99.59834669799804,57.890869225883485,96.89584669799805C59.103869225883486,94.63034669799805,60.571069225883484,92.49134669799804,62.03826922588348,90.37544669799804C64.02536922588348,87.51194669799804,65.22686922588349,84.48744669799805,65.21526922588347,80.92254669799804C65.21526922588347,78.82954669799804,65.48096922588348,76.59854669799805,66.24346922588349,74.66664669799805C67.38716922588348,71.75714669799805,69.06236922588349,69.04314669799805,70.54106922588349,66.26024669799804C71.99676922588348,63.51174669799805,73.85666922588348,60.912746697998045,74.8733692258835,58.026326697998044C76.38676922588348,53.74837669799805,79.21716922588348,51.367906697998045,83.44546922588349,50.160422697998044C85.60576922588348,49.53942999799805,87.69686922588349,49.14843469799805,89.86876922588348,49.849925697998046C91.8211692258835,50.48241669799805,93.25366922588348,51.90839669799804,94.02776922588349,53.679376697998045C95.02126922588349,55.95634669799804,95.82996922588349,58.37131669799805,96.24586922588348,60.80924669799805C96.73106922588349,63.741746697998046,95.66816922588349,66.49024669799805,93.88906922588349,68.82464669799805C92.23706922588349,70.99814669799804,90.15756922588349,72.86114669799805,88.55176922588348,75.06914669799805C87.24626922588348,76.86304669799804,86.40296922588348,78.97904669799804,85.28236922588349,80.91104669799805C84.75086922588349,81.83104669799805,84.17326922588349,82.76254669799805,83.43386922588348,83.51004669799805C81.95516922588348,84.99344669799805,80.26846922588348,84.44144669799805,79.79476922588348,82.39454669799804C79.10166922588348,79.39304669799805,80.07206922588348,76.67904669799805,81.55076922588349,74.20664669799805C83.23746922588349,71.38914669799804,85.27076922588348,68.79014669799804,87.10766922588348,66.05324669799805C88.77126922588349,63.56924669799805,88.92146922588348,60.832246697998045,88.1704692258835,58.026326697998044C87.95096922588348,57.198336697998045,87.38496922588348,57.025836697998045,86.4375692258835,57.08333669799805C84.17326922588349,57.22133669799805,82.59056922588348,58.233326697998045,81.52766922588349,60.14234669799805C79.3211692258835,64.10974669799805,75.8322692258835,67.01924669799804,72.9786692258835,70.44614669799805C71.66166922588349,72.03314669799805,70.34466922588348,73.67764669799804,69.3973692258835,75.49464669799805C68.86596922588348,76.51804669799805,68.6233692258835,78.12804669799804,69.06236922588349,79.11704669799805C71.03786922588348,83.62504669799804,70.39086922588348,87.86844669799805,68.49626922588348,92.15784669799805C67.94176922588349,93.39984669799804,67.58356922588348,94.75684669799804,67.32946922588349,96.09084669799805C67.20236922588349,96.73484669799805,67.52586922588348,97.45934669799804,67.61826922588348,98.03434669799805C70.20606922588348,95.98734669799805,72.52816922588349,94.02084669799805,75.00046922588348,92.24984669799804C76.08636922588349,91.47944669799804,77.41496922588348,90.91594669799804,78.72036922588347,90.61694669799805C79.48286922588349,90.44444669799805,80.40706922588348,90.96194669799804,81.26196922588349,91.16894669799805C80.98476922588348,92.06584669799804,80.96166922588348,93.20434669799805,80.38396922588348,93.80234669799805C77.62286922588348,96.65434669799805,74.67696922588348,99.33384669799804,71.84656922588348,102.11674669799805C70.64506922588347,103.30124669799804,69.25876922588348,103.89924669799805,67.67596922588348,103.37024669799806C65.80446922588348,102.74924669799805,64.84556922588348,101.15074669799804,64.90336922588348,99.29934669799805C64.96116922588348,97.24084669799805,65.33076922588349,95.17084669799804,65.83916922588348,93.16984669799805C66.42836922588349,90.86994669799805,67.30636922588349,88.63894669799805,68.09186922588349,86.28144669799805C67.73376922588349,86.30444669799805,67.57206922588348,86.26994669799805,67.53736922588348,86.32744669799806C65.51566922588349,89.62794669799806,63.47086922588348,92.91684669799804,61.49526922588348,96.25184669799805C60.80216922588348,97.42484669799805,60.34006922588348,98.74734669799804,59.646869225883485,99.93184669799805C59.311869225883484,100.50674669799804,58.50316922588348,101.41524669799804,58.21436922588349,101.31174669799805C56.58536922588348,100.73674669799804,55.545669225883486,102.38124669799805,54.09006922588348,102.19724669799805C52.622869225883484,102.01324669799806,51.132569225883486,101.92124669799804,49.67686922588348,101.66824669799806C45.13666922588348,100.88624669799805,40.63116922588348,101.87524669799805,36.102459225883486,101.92124669799804C34.77389922588348,101.93274669799806,33.46844922588348,102.95624669799804,32.116779225883484,103.38174669799804C31.019269225883484,103.71524669799805,29.794689225883484,103.93374669799805,29.032206225883485,102.69174669799804C28.235069225883485,101.39224669799805,28.616309825883484,100.02374669799805,29.448104225883483,99.02334669799805C31.088589225883485,97.05684669799805,32.948579225883485,95.27434669799806,34.73924922588348,93.42284669799804C37.142209225883484,90.93894669799805,39.545169225883484,88.46644669799804,41.93656922588348,85.97094669799804C42.179169225883484,85.71794669799804,42.29466922588348,85.32694669799804,42.52576922588349,84.91294669799805C41.208769225883486,84.91294669799805,40.018869225883485,85.00494669799804,38.86356922588348,84.86694669799805C38.47076922588349,84.82094669799804,37.97399922588348,84.22294669799805,37.870029225883485,83.78604669799805C37.81225922588348,83.53304669799805,38.36678922588348,82.96954669799806,38.75956922588348,82.80854669799805C39.810869225883486,82.36004669799804,40.919969225883484,81.81954669799805,42.028969225883486,81.75054669799805C43.71566922588349,81.65854669799805,44.351069225883485,80.84204669799804,44.790069225883485,79.35854669799805C45.795169225883484,75.93164669799805,48.429169225883484,73.60864669799804,50.82056922588349,71.17064669799805C52.923169225883484,69.03164669799804,55.12976922588348,66.99624669799805,57.29016922588349,64.91474669799804C57.15146922588349,64.79974669799805,57.047569225883485,64.66174669799804,56.94356922588348,64.52374669799805C56.94356922588348,64.52374669799805,56.94356922588348,64.52374669799805,56.94356922588348,64.52374669799805Z" fill="#FFFFFF" fill-opacity="1"/></g><g><path d="M8.780138625297546,86.71847874145507C8.052318625297547,87.07497874145508,7.486238625297546,87.36247874145508,6.4927086252975466,87.85687874145508C6.885498625297546,87.12097874145508,7.024128625297546,86.72997874145508,7.266738625297546,86.44247874145508C8.826348625297546,84.61397874145507,9.900758625297547,82.76247874145508,9.565728625297545,80.12897874145509C9.115168625297546,76.52957874145508,10.824968625297547,73.33257874145508,12.199728625297546,70.12417874145508C13.447428625297546,67.22617874145507,14.868428625297547,64.38567874145508,15.919728625297546,61.40727874145507C16.693728625297545,59.21077874145507,16.890128625297546,56.81877874145508,17.537128625297548,54.564878741455075C18.831028625297545,50.05687874145508,21.476528625297547,46.365448741455076,24.930828625297547,43.23748874145508C26.525128625297548,41.788508741455075,28.211828625297546,40.431528741455075,29.933128625297545,39.13204374145508C32.10502862529755,37.48756474145508,36.044528625297545,38.06255574145508,37.61572862529755,40.31652874145508C38.49372862529755,41.57000874145508,38.62082862529755,43.08798874145508,37.927628625297544,44.49097874145508C37.003428625297545,46.35394874145508,35.76722862529755,48.067428741455075,35.01632862529755,49.98787874145508C33.849528625297545,52.97787874145508,32.902228625297546,56.05977874145508,32.00112862529755,59.14177874145508C30.811128625297545,63.22427874145508,28.234928625297545,66.32917874145508,25.219628625297545,69.15817874145507C22.920628625297546,71.32017874145508,20.517728625297547,73.36707874145509,18.264928625297546,75.58657874145507C17.098128625297548,76.72507874145508,16.012128625297546,78.01307874145508,15.180328625297546,79.40457874145508C14.660428625297547,80.27847874145507,14.637328625297547,81.46297874145507,14.475628625297546,82.52097874145508C14.233028625297546,84.09647874145509,14.048128625297547,85.67197874145508,13.805528625297546,87.54647874145508C14.406328625297546,86.49997874145508,14.949328625297547,85.63747874145508,15.399828625297546,84.74047874145508C16.91322862529755,81.71597874145507,18.010728625297546,78.40407874145508,19.986228625297546,75.71307874145508C21.996428625297547,72.98757874145508,24.815328625297546,70.84867874145507,27.333828625297546,68.50267874145507C28.234928625297545,67.66317874145508,29.644328625297547,67.84717874145508,30.094928625297545,69.04317874145508C30.591628625297545,70.35417874145509,30.788028625297546,71.86057874145507,30.741828625297547,73.27507874145508C30.649428625297546,76.26507874145508,30.568528625297546,79.30107874145509,30.002428625297547,82.23347874145509C29.563428625297547,84.45297874145507,28.546828625297547,86.60347874145508,27.472428625297546,88.62737874145508C26.317128625297546,90.80087874145508,24.792228625297547,92.77887874145509,23.660028625297546,95.06737874145509C24.711328625297547,94.31987874145508,25.774228625297546,93.57237874145508,26.825428625297548,92.82487874145508C26.952528625297546,92.89387874145507,27.079628625297545,92.97437874145507,27.206728625297547,93.04337874145509C25.034828625297546,96.44727874145508,22.920628625297546,99.88577874145508,20.644728625297546,103.22077874145508C19.778328625297547,104.48567874145508,18.576828625297548,105.63567874145508,16.739928625297544,104.93417874145509C15.388328625297547,104.40517874145507,14.602728625297546,102.58827874145508,14.810628625297547,100.63327874145509C15.145728625297547,97.65477874145508,16.55512862529755,95.11337874145508,18.334228625297545,92.81337874145507C21.361028625297546,88.89187874145509,23.244128625297545,84.61397874145507,23.371228625297547,79.58847874145508C23.417428625297546,77.62207874145508,23.971928625297547,75.67857874145508,24.318528625297546,73.60857874145508C24.006628625297548,73.86157874145508,23.486728625297545,74.12607874145507,23.186328625297545,74.52857874145508C21.488128625297545,76.80557874145508,19.847628625297546,79.10557874145508,18.172528625297545,81.40547874145508C18.080028625297548,81.54347874145508,17.953028625297545,81.64697874145509,17.860528625297547,81.79647874145508C14.660428625297547,86.87947874145507,11.356398625297546,91.89337874145508,8.329588625297546,97.07977874145507C6.966368625297546,99.41427874145508,6.157678625297546,102.08227874145507,5.1294886252975465,104.60067874145508C4.736698625297546,105.55517874145508,4.089738625297546,106.48667874145508,3.0962086252975465,105.92317874145508C2.3568356252975464,105.50917874145507,1.5828036252975464,104.34767874145508,1.5943563732975463,103.53117874145508C1.6752253252975464,99.72477874145508,3.0499986252975466,96.30927874145507,5.221908625297546,93.18137874145508C6.434938625297546,91.43337874145507,7.474688625297547,89.58187874145509,8.572188625297546,87.75347874145507C8.722378625297546,87.51197874145508,8.699268625297545,87.16697874145507,8.780138625297546,86.71847874145507C8.780138625297546,86.71847874145507,8.780138625297546,86.71847874145507,8.780138625297546,86.71847874145507ZM18.195628625297548,69.27317874145507C18.345828625297546,69.37667874145508,18.484428625297546,69.48017874145508,18.634628625297548,69.58367874145507C20.309728625297545,67.61717874145508,22.123528625297546,65.75417874145508,23.602228625297546,63.66127874145508C24.526528625297548,62.36177874145508,25.254328625297546,60.77477874145508,25.531528625297547,59.22227874145508C26.386428625297548,54.49587874145508,27.772828625297546,50.03387874145508,30.672528625297545,46.13545874145508C30.961328625297547,45.74445874145508,31.134628625297548,45.24996874145508,31.573628625297545,44.41047874145508C30.811128625297545,44.95096874145508,30.476128625297548,45.22696874145508,30.106428625297546,45.44545874145508C26.224728625297548,47.68792874145508,24.029728625297547,51.183878741455075,22.897528625297547,55.38137874145508C21.696028625297547,59.82027874145508,21.164628625297546,64.47767874145508,18.426628625297546,68.39917874145507C18.264928625297546,68.61767874145508,18.264928625297546,68.97417874145508,18.195628625297548,69.27317874145507C18.195628625297548,69.27317874145507,18.195628625297548,69.27317874145507,18.195628625297548,69.27317874145507Z" fill="#FFFFFF" fill-opacity="1"/></g><g><path d="M61.07920601177216,53.72536146240235C56.79310601177215,53.184861462402345,52.48400601177215,52.73636146240234,48.221036011772156,52.05786146240234C45.20577601177216,51.57486146240234,42.96455101177216,49.61986146240234,42.42157401177216,46.73336146240234C41.80928001177215,43.51346146240235,43.23026401177216,40.764981462402346,46.095336011772154,38.85600146240235C47.862906011772154,37.683021462402344,49.595806011772154,36.464031462402346,51.21318601177215,35.107051462402346C53.211806011772154,33.428073462402345,55.53390601177216,33.10607746240235,57.98310601177216,33.10607746240235C60.97520601177216,33.10607746240235,64.09450601177215,32.565583462402344,66.92490601177215,33.244074462402345C70.19430601177216,34.026061462402346,73.56770601177216,35.26805146240234,75.82050601177215,38.131511462402344C77.44940601177215,40.18999146240235,76.68690601177215,42.44396146240234,75.56630601177216,44.283961462402345C72.52790601177216,49.332361462402346,67.69890601177215,51.954361462402346,62.107406011772156,53.34586146240234C61.795506011772154,53.42636146240234,61.44890601177215,53.357361462402345,61.11390601177216,53.357361462402345C61.10230601177216,53.483861462402345,61.09080601177216,53.59886146240234,61.07920601177216,53.72536146240235C61.07920601177216,53.72536146240235,61.07920601177216,53.72536146240235,61.07920601177216,53.72536146240235ZM48.740906011772154,40.396981462402344C47.89755601177215,41.45497146240234,46.834706011772155,42.36346146240234,46.36104601177215,43.51346146240235C45.86428601177216,44.709461462402345,47.33147601177215,46.675861462402345,49.08748601177216,46.82536146240234C53.28110601177215,47.19336146240234,57.54410601177216,47.58436146240234,61.714606011772155,47.23936146240234C65.06490601177215,46.61836146240235,67.76820601177215,45.10046146240234,68.75020601177215,44.38746146240234C70.76040601177215,43.225961462402346,70.56400601177216,41.776971462402344,68.57690601177215,40.53498146240234C68.02240601177215,40.18999146240235,67.45630601177216,39.867991462402344,66.89020601177216,39.522991462402345C64.64900601177216,41.66197146240234,61.88790601177216,42.547461462402346,59.022806011772154,43.20296146240234C55.279706011772156,44.05396146240234,51.81392601177215,43.80096146240234,48.740906011772154,40.396981462402344C48.740906011772154,40.396981462402344,48.740906011772154,40.396981462402344,48.740906011772154,40.396981462402344ZM64.05980601177215,38.01651146240234C63.59770601177216,37.78652146240234,63.37820601177216,37.57952146240234,63.14710601177215,37.556521462402344C60.64020601177216,37.384021462402345,58.133306011772156,37.14252146240234,55.62630601177216,37.131021462402344C54.69050601177216,37.119521462402346,53.69700601177216,37.545021462402346,52.830606011772154,37.97051146240234C52.32220601177215,38.22351146240234,52.01032601177216,38.87900146240234,51.60597601177216,39.35050146240234C52.079646011772155,39.649491462402345,52.51860601177216,40.09799146240234,53.03850601177216,40.22449146240234C56.93180601177215,41.20197146240234,60.53620601177215,40.58098146240234,64.05980601177215,38.01651146240234C64.05980601177215,38.01651146240234,64.05980601177215,38.01651146240234,64.05980601177215,38.01651146240234Z" fill="#FFFFFF" fill-opacity="1"/></g><g><path d="M100.12744739971161,76.37999478759765C100.7975073997116,76.23049478759765,101.45600739971161,76.03499478759765,102.13761739971162,75.95449478759765C103.91673739971161,75.74749478759766,105.70739739971161,75.40259478759765,107.47499739971161,75.47149478759766C109.5890973997116,75.55199478759766,110.5363973997116,77.51849478759766,109.18479739971161,79.09399478759767C106.2965973997116,82.45199478759766,103.2697873997116,85.69489478759766,100.1621073997116,88.84589478759766C98.39454739971161,90.63989478759765,96.37282739971161,92.15779478759765,94.46662639971161,93.80229478759765C94.35109939971161,93.68729478759766,94.2355713997116,93.58379478759765,94.13159739971161,93.46879478759766C95.05581339971161,92.56029478759766,96.0031373997116,91.67479478759765,96.8926873997116,90.74339478759765C99.01838739971161,88.52389478759765,101.22495739971161,86.36189478759766,103.17736739971161,83.98139478759765C104.0900273997116,82.87749478759766,104.4943973997116,81.34799478759766,105.2799973997116,79.65749478759766C102.7268073997116,80.11749478759765,100.69352739971161,80.38199478759765,98.70646739971161,80.86499478759765C97.33169739971162,81.19849478759765,96.23418739971162,80.58899478759766,95.7143173997116,79.66899478759765C95.22910739971161,78.80649478759766,95.00960339971161,77.24249478759765,95.49481739971161,76.51799478759766C96.5576673997116,74.90809478759766,98.0248573997116,73.51659478759765,99.50360739971161,72.24009478759766C101.9065673997116,70.18159478759766,104.4712973997116,68.29559478759765,106.9550973997116,66.32919478759766C107.24389739971161,66.09919478759765,107.45189739971161,65.77719478759767,107.94859739971162,65.20219478759765C105.9499973997116,64.96069478759766,104.2286973997116,64.61569478759766,102.4957473997116,64.55819478759766C100.5433473997116,64.50069478759765,98.7757873997116,63.70719478759766,98.18659739971162,62.08569478759766C97.50498739971161,60.211194787597655,98.2328073997116,58.543794787597655,99.39963739971161,57.106294787597655C101.3289373997116,54.71429478759766,103.2928973997116,52.345324787597654,105.3376973997116,50.04535478759766C107.34789739971161,47.802884787597655,109.4850973997116,45.663914787597655,112.3848973997116,44.58292378759766C113.06649739971161,44.329926587597654,114.1061973997116,44.28393068759765,114.66079739971161,44.64042578759766C115.0766973997116,44.916422787597654,115.0534973997116,45.974404787597656,115.08819739971162,46.687394787597654C115.18059739971162,48.57337478759766,113.88669739971161,49.81536478759766,112.70829739971161,50.96534478759766C111.02169739971161,52.60982478759766,110.07429739971161,54.59929478759766,109.28869739971161,56.726794787597655C109.11549739971161,57.19829478759766,108.7110973997116,57.58929478759766,108.19119739971161,58.31379478759766C108.9883973997116,58.31379478759766,109.4850973997116,58.27929478759766,109.97039739971162,58.325294787597656C111.5876973997116,58.47479478759766,113.3090973997116,58.34829478759765,114.78779739971161,58.888794787597654C116.61319739971161,59.55569478759766,116.9481973997116,61.25769478759766,115.55029739971161,62.580194787597655C112.97409739971161,65.00669478759765,110.20139739971161,67.22619478759765,107.49809739971161,69.52609478759766C104.9679973997116,71.67659478759765,102.4148873997116,73.81559478759766,99.87328739971161,75.95449478759765C99.9541573997116,76.09249478759766,100.04658739971161,76.24199478759766,100.12744739971161,76.37999478759765C100.12744739971161,76.37999478759765,100.12744739971161,76.37999478759765,100.12744739971161,76.37999478759765Z" fill="#FFFFFF" fill-opacity="1"/></g><g><path d="M12.199602007865906,115.61757915039063C14.741202007865905,114.82408915039062,17.294342007865907,114.03058915039063,19.835942007865906,113.22559915039062C23.602102007865906,112.02961915039063,27.333602007865906,110.74163915039063,31.122902007865907,109.63764915039063C36.818402007865906,107.97016915039063,42.698702007865904,107.56767915039063,48.590602007865904,107.28017915039062C50.820302007865905,107.16518115039062,53.038402007865905,106.50969455039062,55.24500200786591,106.56719384039063C58.21400200786591,106.63619295039062,61.183102007865905,107.15368515039063,64.1521020078659,107.46418115039063C64.9724020078659,107.55618015039063,65.79260200786591,107.60217915039063,66.6129020078659,107.65967915039063C68.7732020078659,107.80917915039062,69.8707020078659,108.87865915039063,69.90540200786592,110.91413915039062C69.9400020078659,112.60461915039062,68.4613020078659,114.07659915039062,66.76300200786591,114.46758915039062C63.840202007865905,115.15757915039063,61.136902007865906,113.99609915039062,58.32960200786591,113.76609915039063C55.45290200786591,113.52459915039063,52.54170200786591,113.66259915039062,49.64190200786591,113.57059915039062C46.4187020078659,113.46709915039062,43.195502007865905,113.24860915039062,39.98390200786591,113.17960915039063C38.297202007865906,113.14510915039062,36.5989020078659,113.31760915039062,34.9122020078659,113.36360915039063C30.187202007865906,113.49009915039062,25.496802007865906,113.59359915039063,20.864132007865905,114.97358915039062C18.137692007865905,115.79007915039062,15.133992007865906,115.67506915039063,12.257364707865905,115.97406915039062C12.245812007865906,115.84756915039063,12.222707407865906,115.73257915039062,12.199602007865906,115.61757915039063C12.199602007865906,115.61757915039063,12.199602007865906,115.61757915039063,12.199602007865906,115.61757915039063Z" fill="#FFFFFF" fill-opacity="1"/></g><g><path d="M80.78802984844208,106.88920522216797C80.11796984844207,104.55473522216796,81.20391984844208,102.81825222216797,83.88414984844208,102.51925542216797C87.40776984844207,102.11676022216797,91.93636984844208,103.33574822216796,93.78486984844207,107.05020522216797C94.89386984844208,109.26967522216796,94.28156984844207,112.28263522216797,92.47936984844208,114.38711522216796C89.05976984844207,118.40051522216797,82.84439984844208,118.91801522216797,78.45436984844208,116.71011522216797C76.08606534844208,115.51411522216797,75.40445884844208,113.29461522216796,76.57128284844208,110.87965522216797C77.77276984844208,108.40718522216797,78.67387984844208,107.54469522216797,80.78802984844208,106.88920522216797C80.78802984844208,106.88920522216797,80.78802984844208,106.88920522216797,80.78802984844208,106.88920522216797ZM81.29633984844207,107.61369522216796C80.75335984844207,108.41868522216797,79.94466984844208,109.26967522216796,79.59808984844207,110.27015522216797C79.32081984844208,111.05215522216797,79.27460984844208,112.51261522216797,79.72516984844208,112.83461522216797C81.72378984844208,114.28361522216797,85.22426984844208,113.75461522216797,86.84166984844208,111.94913522216797C87.30376984844207,111.43164522216797,87.86986984844208,110.53465522216797,87.70806984844208,110.02866522216797C87.53476984844208,109.47667522216797,86.62216984844207,109.01667522216798,85.94053984844207,108.79817522216797C84.46178984844208,108.31518522216797,82.92526984844207,108.01618522216796,81.29633984844207,107.61369522216796C81.29633984844207,107.61369522216796,81.29633984844207,107.61369522216796,81.29633984844207,107.61369522216796Z" fill="#FFFFFF" fill-opacity="1"/></g><g><path d="M59.76207911968231,23.5498C60.24729311968231,22.3538,60.651639119682315,21.1118,61.25237911968231,19.9618C62.68491911968231,17.2133,63.38962911968231,14.5569,62.23435911968231,11.3944C60.57077211968231,6.86347,63.33186911968231,1.84954,68.0107191196823,0.182059C69.44325911968231,-0.323934,70.20577911968232,0.239559,69.9399791196823,1.68854C69.81297911968231,2.37853,69.70896911968231,3.20652,69.26995911968231,3.68952C67.30599911968231,5.85149,67.1789191196823,8.40445,67.51394911968231,11.0609C67.92984911968232,14.3154,66.8669991196823,17.0178,64.6373291196823,19.3638C63.19323911968231,20.8818,61.80690911968231,22.4688,60.39748211968231,24.0328C60.39748211968231,24.0328,59.76207911968231,23.5498,59.76207911968231,23.5498C59.76207911968231,23.5498,59.76207911968231,23.5498,59.76207911968231,23.5498Z" fill="#FFFFFF" fill-opacity="1"/></g><g><path d="M69.20087230205536,23.434797146606446C70.80670230205536,21.123297146606447,72.50495230205536,18.880797146606447,73.98370230205536,16.488877146606445C75.09276230205536,14.694897146606445,75.91300230205536,12.739927146606446,76.83722230205535,10.842447146606446C77.65746230205536,9.140469146606446,78.98603230205536,8.427478146606445,80.18747230205535,9.082970146606446C81.52767230205536,9.818960146606445,82.45187230205536,12.751427146606446,81.58537230205536,13.843907146606444C78.53547230205535,17.696357146606445,75.11586230205536,21.146297146606443,70.73738230205537,23.526797146606444C70.54098230205535,23.630297146606445,70.34459230205536,23.733797146606445,70.13664430205536,23.791297146606446C69.98645930205537,23.837297146606446,69.81316430205536,23.802797146606444,69.66297830205536,23.802797146606444C69.51279330205536,23.676297146606444,69.35105730205535,23.561297146606446,69.20087230205536,23.434797146606446C69.20087230205536,23.434797146606446,69.20087230205536,23.434797146606446,69.20087230205536,23.434797146606446Z" fill="#FFFFFF" fill-opacity="1"/></g><g><path d="M49.884321093559265,28.575249728393555C50.022953093559266,26.263749728393556,49.780347093559264,23.848849728393553,50.381087093559266,21.663849728393554C51.25909109355926,18.512879728393557,51.305301093559265,15.442419728393554,50.91251109355927,12.268459728393555C50.83164109355926,11.647459728393555,51.02804109355927,10.566475728393554,51.39772109355926,10.405477728393555C51.986911093559264,10.152481728393555,52.93423109355926,10.313479028393555,53.55808109355927,10.635474728393554C55.97259109355927,11.900459728393555,56.896811093559265,14.349929728393555,55.83396109355927,16.879899728393553C54.805771093559265,19.329369728393555,53.581181093559266,21.698349728393552,52.437461093559264,24.090349728393555C51.721201093559266,25.585249728393556,51.004931093559264,27.080249728393554,50.28866809355927,28.575249728393555C50.16158809355927,28.586749728393556,50.022953093559266,28.586749728393556,49.884321093559265,28.575249728393555C49.884321093559265,28.575249728393555,49.884321093559265,28.575249728393555,49.884321093559265,28.575249728393555Z" fill="#FFFFFF" fill-opacity="1"/></g></g></g></svg>